{"accessors" : [{"bufferView" : 0, "byteOffset" : 0, "componentType" : 5123, "count" : 3, "type" : "SCALAR", "max" : [2], "min" : [0]}, {"bufferView" : 1, "byteOffset" : 0, "componentType" : 5126, "count" : 3, "type" : "VEC3", "max" : [-0.013085000216960907, 0, 0], "min" : [-0.9252939820289612, -0.007838999852538109, -0.2905229926109314], "name" : "POSITION"}, {"bufferView" : 1, "byteOffset" : 12, "componentType" : 5126, "count" : 3, "type" : "VEC3", "max" : [0, -0.9571967124938965, -0.2894503176212311], "min" : [0, -0.9571967124938965, -0.2894503176212311], "name" : "NORMAL"}], "asset" : {"generator" : "Aspose.3D 22.7", "version" : "2.0"}, "buffers" : [{"uri" : "data:application/octet-stream;base64,", "byteLength" : 88}], "bufferViews" : [{"buffer" : 0, "byteOffset" : 0, "byteLength" : 8, "target" : 34963}, {"buffer" : 0, "byteOffset" : 12, "byteLength" : 72, "byteStride" : 24, "target" : 34962}], "meshes" : [{"primitives" : [{"attributes" : {"POSITION" : 1, "NORMAL" : 2}, "indices" : 0, "mode" : 4}], "name" : ""}], "nodes" : [{"mesh" : 0, "name" : ""}], "scene" : 0, "scenes" : [{"nodes" : [0]}]}